# xmcd
# 
# Track frame offsets:
#     150
#     13114
#     25445
#     37113
#     45083
#     58218
#     69957
#     82345
#     95593
#     107986
#     125064
#     143186
#     155312
#     170383
#     192252
# 
# Disc length: 2623
# 
# Revision: 0
# Processed by: cddbd v1.5.2PL0 Copyright (c) Steve Scherf et al.
# Submitted via: BonkEnc v1.0.6
# 
DISCID=d30a3d0f
DTITLE=Johnny Cash - The very best of Johnny Cash
DYEAR=2008
DGENRE=Country
TTITLE0=Man In Black
TTITLE1=I Walk The Line
TTITLE2=I Still Miss Someone
TTITLE3=You Wild Colorado
TTITLE4=40 Shades Of Green
TTITLE5=Ring Of Fire
TTITLE6=Jackson
TTITLE7=Bad News
TTITLE8=Folsom Prison Blues (live)
TTITLE9=A Boy Named Sue (live)
TTITLE10=One Piece At A Time
TTITLE11=Hit The Road And Go
TTITLE12=Rockabilly Blues (Texas 1955)
TTITLE13=Daddy Sang Bass
TTITLE14=Data track
EXTD=Playlist Sony BMG Music
EXTT0=From Album Men in Black
EXTT1=From Album Johnny Cash With His Hot And Blue Guitar
EXTT2=From Album The Fabulous Johnny Cash
EXTT3=From Album Orange Blossom Special
EXTT4=From Album Ring Of Fire The Best of Jonny Cash
EXTT5=From Album Ring Of Fire The Best Of Johhny Cash
EXTT6=From Album Carryin On With Johnny Cash and June Carter
EXTT7=From Album I Walk the Line
EXTT8=From Album Johnny Cash At Falsam Prison
EXTT9=From Album Johnny Cash At San Quentin
EXTT10=From Album One Piece At A Time
EXTT11=From Album The Rambler
EXTT12=From album Rockabilly Blues
EXTT13=From Album The Holy Land
EXTT14=PDF file with pics
PLAYORDER=
